<svg xmlns="http://www.w3.org/2000/svg" width="1012" height="1093" viewBox="0 0 1012 1093">

<path d="M 638.00 17.50 L 637.50 7.00 L 640.00 5.50 L 640.50 8.00 L 638.50 10.00 L 640.50 14.00 L 638.00 17.50 Z M 353.00 426.50 L 351.00 426.50 L 345.50 421.00 L 342.50 409.00 L 348.00 404.50 L 363.00 400.50 L 365.50 397.00 L 362.00 395.50 L 346.00 401.50 L 339.00 400.50 L 337.00 398.50 L 335.50 400.00 L 340.50 406.00 L 340.50 408.00 L 339.00 409.50 L 336.00 408.50 L 335.50 404.00 L 332.50 400.00 L 335.50 391.00 L 334.50 388.00 L 330.50 385.00 L 328.50 379.00 L 326.00 376.50 L 319.00 378.50 L 319.50 374.00 L 318.00 372.50 L 317.00 373.50 L 306.00 367.50 L 303.00 367.50 L 295.00 359.50 L 293.00 361.50 L 287.50 359.00 L 292.50 357.00 L 283.50 343.00 L 280.50 341.00 L 281.50 338.00 L 278.50 337.00 L 277.50 330.00 L 273.50 328.00 L 272.50 322.00 L 275.50 319.00 L 275.50 314.00 L 277.50 312.00 L 276.50 306.00 L 279.50 304.00 L 283.50 294.00 L 289.50 286.00 L 305.00 272.50 L 306.00 273.50 L 308.00 270.50 L 309.00 271.50 L 313.00 267.50 L 314.00 268.50 L 321.50 264.00 L 321.50 255.00 L 323.50 247.00 L 331.50 232.00 L 345.00 220.50 L 358.00 216.50 L 360.00 214.50 L 376.00 216.50 L 378.50 215.00 L 376.50 212.00 L 376.50 205.00 L 371.50 193.00 L 371.50 188.00 L 373.00 186.50 L 379.00 186.50 L 380.50 185.00 L 376.50 180.00 L 376.50 176.00 L 378.00 174.50 L 385.00 172.50 L 391.00 165.50 L 393.00 165.50 L 395.00 168.50 L 398.00 168.50 L 403.00 177.50 L 405.50 175.00 L 404.50 173.00 L 409.00 171.50 L 408.50 173.00 L 414.50 178.00 L 413.50 182.00 L 415.00 183.50 L 417.00 181.50 L 419.50 183.00 L 418.50 198.00 L 420.00 199.50 L 422.00 197.50 L 425.00 199.50 L 429.00 193.50 L 431.00 194.50 L 447.00 186.50 L 465.00 185.50 L 468.00 182.50 L 472.00 182.50 L 474.50 184.00 L 472.50 186.00 L 474.00 187.50 L 477.00 184.50 L 480.50 189.00 L 479.50 190.00 L 481.00 191.50 L 484.00 190.50 L 485.50 192.00 L 484.50 193.00 L 498.00 203.50 L 499.00 206.50 L 508.00 202.50 L 533.00 202.50 L 548.00 205.50 L 561.00 213.50 L 571.00 225.50 L 575.50 227.00 L 573.50 231.00 L 575.00 232.50 L 578.00 230.50 L 579.50 234.00 L 576.50 237.00 L 576.50 239.00 L 580.50 245.00 L 580.50 268.00 L 577.50 270.00 L 575.50 278.00 L 570.50 288.00 L 562.50 297.00 L 562.50 301.00 L 566.50 311.00 L 574.50 316.00 L 573.50 324.00 L 572.00 323.50 L 565.50 328.00 L 568.00 331.50 L 573.00 330.50 L 575.50 332.00 L 574.50 336.00 L 577.50 344.00 L 574.00 349.50 L 566.00 353.50 L 561.00 353.50 L 540.00 360.50 L 536.00 363.50 L 535.00 362.50 L 530.00 365.50 L 528.00 364.50 L 519.00 367.50 L 515.00 370.50 L 514.00 369.50 L 512.00 371.50 L 511.00 370.50 L 493.00 376.50 L 489.00 379.50 L 483.00 381.50 L 481.00 380.50 L 477.50 383.00 L 480.50 386.00 L 480.00 387.50 L 477.00 386.50 L 475.00 383.50 L 472.00 383.50 L 468.00 386.50 L 463.00 386.50 L 461.50 388.00 L 462.50 391.00 L 460.00 392.50 L 457.00 392.50 L 454.00 389.50 L 450.00 392.50 L 445.00 392.50 L 442.00 395.50 L 437.50 397.00 L 441.00 399.50 L 444.00 398.50 L 444.50 400.00 L 441.00 402.50 L 439.00 399.50 L 437.00 404.50 L 431.50 402.00 L 435.50 398.00 L 434.00 396.50 L 427.00 400.50 L 424.00 399.50 L 420.00 402.50 L 415.00 402.50 L 409.00 406.50 L 406.00 405.50 L 376.00 415.50 L 372.50 418.00 L 373.00 422.50 L 361.00 420.50 L 359.00 423.50 L 355.00 422.50 L 353.00 426.50 Z M 413.50 212.00 L 417.50 208.00 L 415.50 204.00 L 410.00 199.50 L 408.50 202.00 L 411.50 204.00 L 410.50 208.00 L 413.50 212.00 Z M 468.50 298.00 L 475.00 295.50 L 477.00 292.50 L 478.00 293.50 L 484.50 285.00 L 483.50 282.00 L 487.50 276.00 L 488.50 271.00 L 486.50 265.00 L 489.50 261.00 L 490.50 244.00 L 487.50 234.00 L 484.50 230.00 L 482.50 229.00 L 481.00 233.50 L 477.50 228.00 L 478.00 226.50 L 480.00 227.50 L 481.50 226.00 L 481.50 223.00 L 477.50 221.00 L 478.50 219.00 L 476.50 217.00 L 472.00 213.50 L 468.00 215.50 L 464.00 209.50 L 455.00 208.50 L 445.00 212.50 L 438.50 219.00 L 434.50 226.00 L 437.50 234.00 L 432.50 240.00 L 431.50 251.00 L 433.00 252.50 L 435.00 249.50 L 436.50 256.00 L 434.00 256.50 L 432.50 259.00 L 435.50 264.00 L 434.50 268.00 L 437.50 272.00 L 436.50 274.00 L 439.50 280.00 L 442.50 282.00 L 441.50 283.00 L 443.50 286.00 L 451.00 293.50 L 458.00 297.50 L 461.00 296.50 L 463.00 298.50 L 468.50 298.00 Z M 538.50 284.00 L 544.00 276.50 L 547.00 278.50 L 550.50 275.00 L 555.50 265.00 L 556.50 259.00 L 552.50 257.00 L 553.50 251.00 L 550.50 248.00 L 551.50 244.00 L 547.50 242.00 L 547.50 240.00 L 550.50 237.00 L 543.00 229.50 L 539.00 227.50 L 531.00 225.50 L 527.00 227.50 L 513.00 226.50 L 511.50 228.00 L 512.50 234.00 L 514.00 235.50 L 516.00 234.50 L 518.50 237.00 L 518.50 250.00 L 515.50 251.00 L 516.50 261.00 L 519.50 263.00 L 519.50 266.00 L 522.00 268.50 L 524.50 268.00 L 525.50 270.00 L 523.50 272.00 L 523.50 275.00 L 532.00 283.50 L 533.00 282.50 L 538.50 284.00 Z M 397.50 321.00 L 399.00 319.50 L 404.00 319.50 L 410.50 313.00 L 409.50 312.00 L 414.50 304.00 L 413.50 296.00 L 415.50 294.00 L 414.50 287.00 L 412.50 285.00 L 413.50 281.00 L 412.00 279.50 L 409.00 282.50 L 407.50 280.00 L 407.50 276.00 L 410.50 273.00 L 408.50 268.00 L 405.50 266.00 L 404.50 261.00 L 400.50 258.00 L 401.50 257.00 L 392.00 247.50 L 388.00 247.50 L 386.00 243.50 L 378.00 239.50 L 370.00 240.50 L 368.00 237.50 L 366.00 237.50 L 355.00 241.50 L 349.50 247.00 L 347.50 251.00 L 348.50 252.00 L 346.50 254.00 L 347.50 255.00 L 345.50 257.00 L 347.50 269.00 L 346.50 275.00 L 348.50 277.00 L 347.50 279.00 L 351.50 285.00 L 350.50 286.00 L 354.50 294.00 L 363.50 306.00 L 375.00 315.50 L 378.00 315.50 L 381.00 318.50 L 389.00 321.50 L 397.50 321.00 Z M 332.50 352.00 L 339.00 351.50 L 343.50 343.00 L 341.50 339.00 L 342.50 328.00 L 340.50 325.00 L 342.50 321.00 L 336.50 318.00 L 338.50 312.00 L 327.50 291.00 L 325.00 289.50 L 321.00 291.50 L 317.00 296.50 L 315.00 295.50 L 312.00 297.50 L 306.50 303.00 L 307.50 304.00 L 303.50 307.00 L 304.50 309.00 L 300.50 319.00 L 304.50 329.00 L 303.50 330.00 L 307.50 335.00 L 306.50 336.00 L 308.50 339.00 L 318.00 347.50 L 322.00 349.50 L 324.00 348.50 L 326.00 351.50 L 332.50 352.00 Z M 504.50 326.00 L 505.50 325.00 L 503.50 323.00 L 508.00 317.50 L 512.00 321.50 L 513.50 320.00 L 513.50 313.00 L 503.00 305.50 L 498.50 313.00 L 499.50 316.00 L 496.50 320.00 L 504.50 326.00 Z M 446.50 349.00 L 450.00 348.50 L 452.50 345.00 L 452.50 341.00 L 456.50 335.00 L 457.50 325.00 L 455.00 322.50 L 452.00 322.50 L 450.00 324.50 L 448.00 323.50 L 444.00 318.50 L 442.50 319.00 L 443.00 316.50 L 446.00 318.50 L 447.50 317.00 L 444.00 313.50 L 438.00 311.50 L 434.50 315.00 L 432.50 320.00 L 432.50 327.00 L 434.50 329.00 L 433.50 332.00 L 441.50 340.00 L 440.50 343.00 L 446.50 349.00 Z M 538.50 341.00 L 553.00 336.50 L 557.00 333.50 L 559.00 334.50 L 562.50 331.00 L 561.00 329.50 L 556.00 332.50 L 555.00 331.50 L 546.00 334.50 L 542.00 337.50 L 537.00 337.50 L 535.50 339.00 L 538.50 341.00 Z M 414.50 383.00 L 417.00 380.50 L 420.00 381.50 L 488.00 358.50 L 494.00 354.50 L 497.00 355.50 L 518.00 348.50 L 524.50 345.00 L 522.00 342.50 L 518.00 345.50 L 512.00 345.50 L 506.00 347.50 L 503.00 350.50 L 498.00 350.50 L 494.00 353.50 L 489.00 353.50 L 485.00 356.50 L 480.00 356.50 L 476.00 359.50 L 474.00 358.50 L 441.00 369.50 L 438.00 372.50 L 432.00 372.50 L 425.00 376.50 L 423.00 375.50 L 418.00 379.50 L 416.00 377.50 L 414.00 379.50 L 413.00 378.50 L 411.50 382.00 L 414.50 383.00 Z M 390.50 369.00 L 394.50 361.00 L 395.50 354.00 L 383.00 346.50 L 379.50 351.00 L 377.50 360.00 L 385.00 366.50 L 390.50 369.00 Z M 925.00 427.50 L 921.00 426.50 L 915.00 419.50 L 909.00 416.50 L 900.50 408.00 L 898.50 402.00 L 894.50 399.00 L 892.50 391.00 L 894.50 378.00 L 896.50 374.00 L 899.50 372.00 L 898.50 371.00 L 912.50 358.00 L 912.00 356.50 L 915.00 357.50 L 920.00 349.50 L 922.00 350.50 L 926.00 348.50 L 930.00 351.50 L 941.00 352.50 L 959.00 366.50 L 958.50 368.00 L 963.00 372.50 L 965.00 370.50 L 967.50 372.00 L 964.50 377.00 L 964.50 381.00 L 966.50 383.00 L 966.50 395.00 L 963.50 399.00 L 962.50 404.00 L 952.50 416.00 L 952.50 418.00 L 950.00 417.50 L 943.00 421.50 L 936.00 422.50 L 935.00 425.50 L 928.00 425.50 L 925.00 427.50 Z M 934.50 416.00 L 945.00 412.50 L 952.50 406.00 L 955.50 401.00 L 952.50 396.00 L 953.50 391.00 L 956.50 389.00 L 956.50 386.00 L 951.50 379.00 L 954.50 376.00 L 954.50 374.00 L 947.00 365.50 L 939.00 361.50 L 926.00 360.50 L 916.00 364.50 L 908.50 371.00 L 904.50 378.00 L 905.50 380.00 L 902.50 385.00 L 902.50 391.00 L 904.50 393.00 L 904.00 397.50 L 906.00 398.50 L 908.50 397.00 L 906.50 403.00 L 908.00 404.50 L 911.50 404.00 L 909.50 407.00 L 914.00 411.50 L 925.00 416.50 L 934.50 416.00 Z M 991.00 370.50 L 981.00 370.50 L 979.50 369.00 L 991.00 368.50 L 991.00 370.50 Z M 947.00 407.50 L 940.00 407.50 L 934.50 395.00 L 931.00 391.50 L 927.00 391.50 L 925.50 393.00 L 927.50 398.00 L 923.50 400.00 L 924.50 405.00 L 922.00 407.50 L 916.50 407.00 L 915.50 396.00 L 917.00 369.50 L 938.00 369.50 L 944.00 373.50 L 946.50 373.00 L 945.50 375.00 L 950.50 379.00 L 948.50 381.00 L 949.50 385.00 L 947.00 386.50 L 945.00 384.50 L 938.50 391.00 L 944.50 397.00 L 947.50 404.00 L 947.00 407.50 Z M 934.50 386.00 L 938.50 382.00 L 937.50 377.00 L 934.00 374.50 L 925.00 374.50 L 923.50 376.00 L 923.50 385.00 L 925.00 386.50 L 934.50 386.00 Z M 372.50 397.00 L 408.00 385.50 L 409.50 382.00 L 408.00 380.50 L 393.00 385.50 L 389.00 388.50 L 384.00 388.50 L 380.00 391.50 L 378.00 390.50 L 367.50 395.00 L 369.00 397.50 L 372.50 397.00 Z M 519.00 1063.50 L 515.00 1060.50 L 504.00 1061.50 L 502.00 1059.50 L 499.00 1059.50 L 499.50 1055.00 L 489.00 1047.50 L 488.00 1044.50 L 485.00 1046.50 L 479.50 1039.00 L 480.50 1032.00 L 478.50 1027.00 L 478.50 1011.00 L 483.50 1001.00 L 482.50 996.00 L 485.50 991.00 L 483.50 989.00 L 489.00 985.50 L 490.50 986.00 L 505.50 966.00 L 510.50 964.00 L 509.50 962.00 L 511.50 959.00 L 514.00 958.50 L 516.00 960.50 L 517.50 959.00 L 517.00 955.50 L 521.00 957.50 L 534.00 949.50 L 556.00 942.50 L 560.00 939.50 L 570.00 939.50 L 573.00 937.50 L 577.00 938.50 L 579.00 936.50 L 600.00 936.50 L 602.50 934.00 L 603.50 908.00 L 599.50 904.00 L 598.50 899.00 L 601.50 896.00 L 601.50 893.00 L 604.50 891.00 L 604.50 877.00 L 606.50 875.00 L 606.50 863.00 L 608.50 861.00 L 607.50 855.00 L 610.50 852.00 L 612.50 845.00 L 611.50 841.00 L 617.50 828.00 L 615.50 824.00 L 620.50 820.00 L 619.50 818.00 L 621.50 814.00 L 620.00 812.50 L 619.00 813.50 L 616.00 809.50 L 614.50 811.00 L 615.50 815.00 L 610.50 818.00 L 608.50 822.00 L 610.50 825.00 L 607.00 827.50 L 606.00 826.50 L 601.50 833.00 L 601.50 835.00 L 604.50 838.00 L 593.50 844.00 L 582.50 859.00 L 583.50 861.00 L 582.00 862.50 L 581.00 861.50 L 576.50 866.00 L 570.50 873.00 L 571.50 874.00 L 551.50 895.00 L 550.00 894.50 L 541.50 903.00 L 542.00 908.50 L 540.00 908.50 L 538.00 905.50 L 523.00 917.50 L 501.00 930.50 L 500.00 933.50 L 498.00 932.50 L 496.00 935.50 L 489.00 938.50 L 487.00 937.50 L 485.00 940.50 L 480.00 940.50 L 475.00 944.50 L 473.00 943.50 L 464.00 946.50 L 460.00 949.50 L 458.00 948.50 L 454.00 952.50 L 449.00 951.50 L 447.00 953.50 L 443.00 952.50 L 438.00 954.50 L 415.00 953.50 L 412.00 955.50 L 409.00 953.50 L 403.00 953.50 L 400.00 955.50 L 384.00 953.50 L 380.00 949.50 L 368.00 946.50 L 355.00 940.50 L 354.00 941.50 L 352.00 938.50 L 349.00 938.50 L 347.00 935.50 L 337.00 928.50 L 336.00 929.50 L 308.50 898.00 L 309.50 897.00 L 300.50 881.00 L 293.50 878.00 L 297.50 874.00 L 293.50 871.00 L 291.00 866.50 L 290.00 867.50 L 287.50 866.00 L 291.50 861.00 L 286.50 852.00 L 283.50 840.00 L 278.50 834.00 L 280.50 821.00 L 279.50 816.00 L 276.50 812.00 L 275.50 805.00 L 276.50 794.00 L 274.50 787.00 L 274.50 771.00 L 273.00 769.50 L 271.50 771.00 L 271.50 775.00 L 269.00 777.50 L 268.50 770.00 L 272.50 768.00 L 271.50 767.00 L 273.50 759.00 L 273.50 741.00 L 275.50 739.00 L 274.50 728.00 L 275.50 720.00 L 277.50 718.00 L 277.50 701.00 L 275.50 698.00 L 279.50 696.00 L 278.50 691.00 L 281.50 685.00 L 281.50 679.00 L 284.50 677.00 L 283.50 672.00 L 285.50 670.00 L 288.50 658.00 L 288.50 646.00 L 292.50 640.00 L 290.00 638.50 L 284.00 641.50 L 279.00 650.50 L 276.00 649.50 L 274.00 652.50 L 268.00 650.50 L 267.00 653.50 L 265.00 652.50 L 254.50 661.00 L 256.00 665.50 L 254.00 664.50 L 246.00 671.50 L 243.00 669.50 L 238.00 674.50 L 230.50 682.00 L 230.50 685.00 L 229.00 684.50 L 226.50 687.00 L 227.50 689.00 L 223.50 691.00 L 223.50 695.00 L 219.50 697.00 L 218.50 703.00 L 220.50 706.00 L 217.50 708.00 L 218.50 710.00 L 216.00 712.50 L 213.00 711.50 L 211.50 713.00 L 207.50 725.00 L 207.50 754.00 L 209.50 763.00 L 216.50 769.00 L 210.50 771.00 L 214.50 780.00 L 221.50 790.00 L 234.00 801.50 L 246.00 808.50 L 257.00 812.50 L 259.00 811.50 L 263.50 816.00 L 263.50 818.00 L 257.50 823.00 L 258.50 824.00 L 251.00 830.50 L 249.00 830.50 L 247.00 833.50 L 235.00 830.50 L 226.00 831.50 L 221.00 830.50 L 219.00 828.50 L 211.00 829.50 L 208.00 824.50 L 200.00 827.50 L 194.50 823.00 L 192.00 817.50 L 189.00 818.50 L 188.00 815.50 L 182.00 811.50 L 179.00 813.50 L 177.50 812.00 L 178.50 810.00 L 174.00 805.50 L 171.00 804.50 L 163.00 796.50 L 160.50 797.00 L 161.50 795.00 L 148.50 779.00 L 141.50 764.00 L 137.50 762.00 L 134.50 754.00 L 135.50 752.00 L 131.50 744.00 L 132.50 733.00 L 134.50 731.00 L 135.50 718.00 L 137.50 714.00 L 135.50 702.00 L 142.50 699.00 L 145.50 693.00 L 144.50 688.00 L 146.00 686.50 L 148.00 687.50 L 156.50 676.00 L 175.00 657.50 L 176.00 658.50 L 186.00 651.50 L 189.00 646.50 L 192.00 647.50 L 208.00 637.50 L 209.00 638.50 L 223.00 630.50 L 224.00 631.50 L 248.00 621.50 L 259.00 618.50 L 262.00 615.50 L 265.00 616.50 L 277.00 612.50 L 278.50 611.00 L 274.50 608.00 L 277.00 606.50 L 283.00 608.50 L 302.00 604.50 L 305.50 599.00 L 304.00 597.50 L 296.50 598.00 L 305.50 593.00 L 308.50 588.00 L 313.50 572.00 L 317.50 570.00 L 316.50 567.00 L 319.50 565.00 L 321.50 561.00 L 320.50 557.00 L 323.50 552.00 L 321.50 545.00 L 325.00 544.50 L 332.50 539.00 L 338.50 527.00 L 346.50 516.00 L 345.50 513.00 L 347.50 510.00 L 350.00 510.50 L 351.50 509.00 L 360.50 497.00 L 360.50 495.00 L 400.00 452.50 L 411.00 444.50 L 415.00 439.50 L 416.00 440.50 L 429.00 429.50 L 430.00 430.50 L 445.00 419.50 L 486.00 401.50 L 509.00 395.50 L 514.00 392.50 L 518.00 393.50 L 521.00 389.50 L 525.00 391.50 L 528.00 391.50 L 530.00 389.50 L 551.00 390.50 L 552.50 389.00 L 550.50 387.00 L 555.00 385.50 L 558.00 389.50 L 569.00 390.50 L 572.00 393.50 L 580.00 395.50 L 582.00 394.50 L 598.00 402.50 L 602.00 401.50 L 604.00 405.50 L 609.00 407.50 L 624.00 418.50 L 641.50 437.00 L 650.50 451.00 L 654.50 454.00 L 653.50 456.00 L 655.00 457.50 L 658.00 456.50 L 661.50 460.00 L 661.50 462.00 L 659.00 461.50 L 657.50 464.00 L 662.50 471.00 L 661.50 472.00 L 664.50 480.00 L 668.50 484.00 L 670.50 490.00 L 675.50 507.00 L 675.50 519.00 L 678.50 524.00 L 678.50 537.00 L 681.00 539.50 L 684.00 539.50 L 689.00 536.50 L 691.00 532.50 L 697.00 535.50 L 707.00 533.50 L 721.00 534.50 L 724.00 532.50 L 734.00 532.50 L 736.00 534.50 L 751.00 533.50 L 754.00 535.50 L 756.00 531.50 L 758.00 532.50 L 760.00 529.50 L 761.00 530.50 L 762.50 527.00 L 766.00 524.50 L 770.00 524.50 L 773.00 520.50 L 777.00 520.50 L 781.00 516.50 L 782.00 517.50 L 786.00 513.50 L 799.00 506.50 L 804.00 504.50 L 806.00 505.50 L 813.00 500.50 L 815.00 501.50 L 838.00 491.50 L 846.00 491.50 L 849.00 488.50 L 858.00 486.50 L 862.00 487.50 L 864.00 485.50 L 866.00 486.50 L 869.00 483.50 L 893.00 483.50 L 902.00 481.50 L 910.00 483.50 L 924.00 482.50 L 929.00 485.50 L 933.00 484.50 L 936.00 487.50 L 938.00 486.50 L 947.00 492.50 L 948.00 491.50 L 950.00 494.50 L 954.00 492.50 L 952.50 496.00 L 957.00 500.50 L 959.00 498.50 L 966.50 505.00 L 964.50 515.00 L 965.50 531.00 L 961.50 538.00 L 961.50 542.00 L 958.50 544.00 L 959.50 545.00 L 956.50 547.00 L 956.50 549.00 L 951.50 553.00 L 952.50 554.00 L 947.00 559.50 L 946.00 558.50 L 938.00 564.50 L 935.00 568.50 L 925.00 573.50 L 924.00 572.50 L 921.00 575.50 L 919.00 574.50 L 916.00 577.50 L 910.00 577.50 L 902.00 581.50 L 893.00 581.50 L 887.00 584.50 L 880.00 583.50 L 876.00 585.50 L 855.00 585.50 L 852.00 583.50 L 842.00 584.50 L 840.00 582.50 L 828.00 582.50 L 822.00 580.50 L 816.00 583.50 L 816.50 581.00 L 815.00 579.50 L 813.00 581.50 L 809.00 581.50 L 809.50 578.00 L 808.00 576.50 L 802.00 576.50 L 796.50 583.00 L 796.50 585.00 L 793.50 587.00 L 785.50 602.00 L 783.50 607.00 L 784.50 611.00 L 779.50 617.00 L 775.50 631.00 L 773.50 653.00 L 775.50 655.00 L 774.50 660.00 L 776.50 665.00 L 779.00 667.50 L 781.00 664.50 L 782.50 665.00 L 782.50 667.00 L 786.50 671.00 L 783.50 675.00 L 786.00 677.50 L 792.00 677.50 L 797.00 674.50 L 802.00 675.50 L 807.00 672.50 L 814.00 673.50 L 819.00 671.50 L 845.00 671.50 L 847.00 673.50 L 850.00 669.50 L 853.00 670.50 L 853.50 673.00 L 858.00 677.50 L 865.00 681.50 L 875.50 692.00 L 873.50 708.00 L 872.00 707.50 L 869.50 712.00 L 856.00 723.50 L 845.00 727.50 L 813.00 727.50 L 811.00 725.50 L 807.00 726.50 L 805.00 724.50 L 802.00 725.50 L 799.00 722.50 L 794.00 723.50 L 785.00 719.50 L 782.00 720.50 L 780.00 715.50 L 774.00 713.50 L 752.00 729.50 L 725.50 756.00 L 726.50 757.00 L 714.50 770.00 L 712.50 773.00 L 713.50 774.00 L 710.50 776.00 L 707.50 780.00 L 708.50 781.00 L 702.50 788.00 L 703.50 789.00 L 700.50 791.00 L 700.50 794.00 L 697.50 796.00 L 697.50 800.00 L 695.50 802.00 L 696.50 806.00 L 692.50 808.00 L 694.50 812.00 L 693.00 813.50 L 691.00 811.50 L 688.50 816.00 L 689.50 818.00 L 687.00 817.50 L 684.50 821.00 L 684.50 826.00 L 681.50 831.00 L 681.50 834.00 L 678.50 837.00 L 679.50 838.00 L 675.50 847.00 L 677.50 850.00 L 676.50 855.00 L 674.00 853.50 L 672.50 855.00 L 668.50 864.00 L 668.50 871.00 L 665.50 875.00 L 664.50 882.00 L 667.50 886.00 L 667.50 892.00 L 665.00 891.50 L 662.50 895.00 L 659.50 911.00 L 662.50 914.00 L 662.50 921.00 L 658.50 923.00 L 660.50 927.00 L 656.50 932.00 L 654.50 938.00 L 662.00 941.50 L 666.00 941.50 L 667.50 940.00 L 666.50 939.00 L 669.00 937.50 L 675.00 937.50 L 674.50 940.00 L 678.00 942.50 L 687.00 942.50 L 693.00 945.50 L 697.00 944.50 L 704.00 946.50 L 760.00 946.50 L 765.00 944.50 L 769.00 945.50 L 771.00 943.50 L 776.00 942.50 L 790.00 940.50 L 794.00 941.50 L 823.00 930.50 L 826.00 931.50 L 829.00 928.50 L 831.00 929.50 L 843.00 923.50 L 845.00 920.50 L 846.00 921.50 L 856.00 915.50 L 866.00 907.50 L 883.50 889.00 L 891.50 878.00 L 890.50 877.00 L 893.50 875.00 L 896.50 870.00 L 895.50 869.00 L 901.50 862.00 L 903.50 858.00 L 902.50 856.00 L 905.50 853.00 L 905.50 849.00 L 903.50 846.00 L 905.00 844.50 L 907.00 848.50 L 908.50 847.00 L 907.50 842.00 L 911.50 834.00 L 914.00 832.50 L 916.00 834.50 L 920.00 833.50 L 921.00 836.50 L 928.50 839.00 L 930.50 843.00 L 929.50 846.00 L 931.50 849.00 L 930.50 854.00 L 934.00 855.50 L 935.50 859.00 L 932.50 861.00 L 932.50 883.00 L 930.50 885.00 L 931.50 891.00 L 929.50 893.00 L 929.50 899.00 L 924.50 910.00 L 925.50 913.00 L 921.50 918.00 L 922.50 919.00 L 918.50 925.00 L 918.50 928.00 L 915.50 930.00 L 916.50 931.00 L 909.50 939.00 L 910.50 940.00 L 905.50 944.00 L 907.50 947.00 L 905.50 951.00 L 903.00 951.50 L 901.00 949.50 L 888.00 962.50 L 887.00 961.50 L 884.00 963.50 L 880.50 968.00 L 882.00 970.50 L 877.00 972.50 L 877.50 970.00 L 876.00 968.50 L 874.00 971.50 L 873.00 970.50 L 869.00 972.50 L 867.00 975.50 L 849.00 980.50 L 845.00 983.50 L 843.00 982.50 L 831.00 985.50 L 829.00 987.50 L 826.00 986.50 L 824.00 988.50 L 809.00 990.50 L 768.00 990.50 L 760.00 989.50 L 758.00 987.50 L 745.00 987.50 L 743.00 985.50 L 734.00 983.50 L 730.00 984.50 L 728.00 982.50 L 725.00 983.50 L 720.00 980.50 L 711.00 981.50 L 703.00 977.50 L 691.00 975.50 L 685.00 971.50 L 662.00 967.50 L 659.00 964.50 L 651.00 962.50 L 648.00 963.50 L 645.50 967.00 L 645.50 972.00 L 648.50 974.00 L 647.50 976.00 L 641.50 978.00 L 642.50 982.00 L 630.50 999.00 L 631.50 1001.00 L 628.50 1002.00 L 628.50 1006.00 L 627.00 1005.50 L 624.50 1008.00 L 603.00 1033.50 L 602.00 1032.50 L 587.00 1043.50 L 584.00 1048.50 L 582.00 1046.50 L 570.00 1052.50 L 568.00 1055.50 L 565.00 1054.50 L 547.00 1060.50 L 521.00 1061.50 L 519.00 1063.50 Z M 417.50 576.00 L 419.00 573.50 L 424.00 574.50 L 427.00 569.50 L 431.00 572.50 L 434.00 572.50 L 439.00 568.50 L 445.00 569.50 L 452.00 567.50 L 456.00 564.50 L 459.00 564.50 L 462.00 559.50 L 471.00 562.50 L 475.00 558.50 L 479.00 558.50 L 488.00 554.50 L 492.00 555.50 L 500.00 552.50 L 518.00 545.50 L 522.00 541.50 L 525.00 542.50 L 547.00 531.50 L 549.00 528.50 L 553.00 526.50 L 555.00 527.50 L 557.00 522.50 L 560.00 524.50 L 564.00 519.50 L 568.00 519.50 L 569.50 518.00 L 568.50 515.00 L 572.00 510.50 L 574.00 512.50 L 578.00 510.50 L 579.00 511.50 L 590.00 500.50 L 591.00 501.50 L 594.50 498.00 L 592.50 496.00 L 598.00 490.50 L 600.00 491.50 L 602.50 489.00 L 599.50 486.00 L 601.50 481.00 L 605.00 477.50 L 609.00 476.50 L 611.50 473.00 L 610.50 467.00 L 613.50 464.00 L 613.50 461.00 L 610.50 457.00 L 610.50 450.00 L 605.50 442.00 L 599.00 435.50 L 592.00 431.50 L 589.00 434.50 L 586.00 434.50 L 579.00 427.50 L 574.00 428.50 L 572.00 426.50 L 556.00 426.50 L 549.00 427.50 L 547.00 431.50 L 537.00 430.50 L 526.00 434.50 L 508.00 443.50 L 496.00 451.50 L 482.00 462.50 L 468.50 476.00 L 469.50 477.00 L 467.00 477.50 L 453.50 491.00 L 436.50 512.00 L 437.50 513.00 L 433.50 516.00 L 434.50 518.00 L 430.50 520.00 L 416.50 540.00 L 412.50 547.00 L 413.50 549.00 L 410.50 550.00 L 403.50 563.00 L 404.50 569.00 L 407.50 570.00 L 407.50 574.00 L 409.00 575.50 L 417.50 576.00 Z M 407.50 916.00 L 408.50 915.00 L 405.50 912.00 L 409.00 910.50 L 418.00 910.50 L 420.00 912.50 L 426.00 912.50 L 428.00 909.50 L 431.00 910.50 L 437.00 905.50 L 439.00 906.50 L 445.00 899.50 L 447.00 901.50 L 449.00 900.50 L 451.00 897.50 L 452.00 898.50 L 455.00 894.50 L 456.00 895.50 L 466.00 887.50 L 496.50 856.00 L 495.50 855.00 L 499.50 852.00 L 497.50 848.00 L 504.50 844.00 L 507.50 839.00 L 507.50 836.00 L 516.50 830.00 L 516.50 826.00 L 520.50 824.00 L 518.50 820.00 L 526.50 812.00 L 526.50 807.00 L 535.00 798.50 L 536.00 799.50 L 537.50 798.00 L 540.50 793.00 L 539.50 790.00 L 543.50 788.00 L 547.50 781.00 L 546.50 776.00 L 552.50 772.00 L 551.50 769.00 L 554.50 768.00 L 553.50 766.00 L 556.50 764.00 L 567.50 742.00 L 565.50 737.00 L 570.50 735.00 L 581.50 711.00 L 582.50 706.00 L 580.50 700.00 L 584.00 702.50 L 585.50 701.00 L 587.50 696.00 L 586.50 691.00 L 588.50 687.00 L 591.50 686.00 L 602.50 655.00 L 600.50 651.00 L 601.50 648.00 L 603.00 645.50 L 604.00 646.50 L 605.50 645.00 L 605.50 640.00 L 609.50 633.00 L 611.50 625.00 L 609.50 622.00 L 612.50 616.00 L 614.50 601.00 L 618.50 596.00 L 621.50 580.00 L 620.50 578.00 L 622.50 573.00 L 621.50 565.00 L 623.50 563.00 L 623.50 531.00 L 625.50 529.00 L 623.50 525.00 L 624.50 507.00 L 623.00 505.50 L 611.50 520.00 L 612.50 521.00 L 602.50 530.00 L 600.00 534.50 L 598.00 533.50 L 596.50 535.00 L 599.50 540.00 L 598.00 541.50 L 594.00 541.50 L 591.00 539.50 L 583.00 547.50 L 582.00 546.50 L 580.00 549.50 L 579.00 548.50 L 573.00 552.50 L 570.50 556.00 L 571.00 559.50 L 570.00 558.50 L 567.00 561.50 L 565.00 559.50 L 562.00 559.50 L 551.00 567.50 L 545.00 568.50 L 543.00 574.50 L 539.00 572.50 L 530.00 577.50 L 528.00 576.50 L 524.00 580.50 L 519.00 580.50 L 510.00 583.50 L 504.00 587.50 L 503.00 586.50 L 491.00 590.50 L 487.00 593.50 L 486.00 592.50 L 484.00 596.50 L 482.00 594.50 L 475.00 597.50 L 471.00 596.50 L 466.00 599.50 L 464.00 598.50 L 461.00 600.50 L 460.00 599.50 L 455.00 602.50 L 449.00 602.50 L 447.00 604.50 L 436.00 606.50 L 431.00 605.50 L 425.00 606.50 L 423.00 608.50 L 418.00 607.50 L 406.00 609.50 L 404.50 611.00 L 405.50 612.00 L 403.00 613.50 L 395.00 612.50 L 392.00 615.50 L 387.00 615.50 L 385.00 612.50 L 383.00 612.50 L 375.50 621.00 L 373.50 625.00 L 374.50 630.00 L 370.50 633.00 L 373.50 640.00 L 368.50 645.00 L 368.50 647.00 L 371.50 648.00 L 371.50 650.00 L 368.00 648.50 L 366.50 651.00 L 368.50 655.00 L 364.00 654.50 L 362.50 656.00 L 358.50 669.00 L 359.50 671.00 L 357.50 673.00 L 355.50 679.00 L 356.50 681.00 L 354.50 683.00 L 354.50 691.00 L 351.50 694.00 L 352.50 697.00 L 350.50 699.00 L 353.50 704.00 L 353.50 709.00 L 351.00 707.50 L 349.50 709.00 L 347.50 713.00 L 348.50 716.00 L 346.50 718.00 L 346.50 726.00 L 350.50 729.00 L 347.00 730.50 L 344.50 734.00 L 345.50 737.00 L 342.50 742.00 L 343.50 747.00 L 341.50 751.00 L 341.50 779.00 L 339.50 781.00 L 339.50 805.00 L 341.50 807.00 L 340.50 821.00 L 343.50 827.00 L 345.50 845.00 L 350.50 848.00 L 345.50 853.00 L 347.50 855.00 L 346.50 857.00 L 353.50 865.00 L 350.50 871.00 L 355.50 877.00 L 355.50 883.00 L 363.50 896.00 L 375.00 907.50 L 377.00 908.50 L 379.00 905.50 L 382.00 905.50 L 382.50 908.00 L 379.50 910.00 L 381.00 911.50 L 383.00 910.50 L 391.00 915.50 L 398.00 914.50 L 400.00 916.50 L 407.50 916.00 Z M 875.50 559.00 L 877.00 557.50 L 880.00 558.50 L 882.00 556.50 L 886.00 557.50 L 889.00 555.50 L 896.00 554.50 L 897.50 553.00 L 897.00 550.50 L 903.00 552.50 L 911.00 548.50 L 914.00 549.50 L 925.00 543.50 L 926.50 542.00 L 925.50 541.00 L 930.00 536.50 L 932.00 537.50 L 935.50 534.00 L 932.50 530.00 L 934.00 528.50 L 937.00 530.50 L 938.50 529.00 L 939.50 517.00 L 934.00 513.50 L 930.00 514.50 L 929.50 511.00 L 927.00 508.50 L 921.00 509.50 L 919.00 506.50 L 917.00 508.50 L 906.00 507.50 L 900.00 510.50 L 894.00 510.50 L 884.00 513.50 L 880.00 512.50 L 877.00 513.50 L 873.00 519.50 L 870.00 518.50 L 865.00 525.50 L 860.00 525.50 L 860.50 523.00 L 859.00 521.50 L 848.00 527.50 L 846.00 530.50 L 845.00 529.50 L 836.00 535.50 L 830.00 542.50 L 829.00 541.50 L 820.50 550.00 L 822.00 552.50 L 833.00 555.50 L 840.00 552.50 L 842.00 555.50 L 852.00 557.50 L 857.00 557.50 L 859.00 555.50 L 862.00 559.50 L 875.50 559.00 Z M 970.00 533.50 L 969.50 528.00 L 972.50 526.00 L 971.50 522.00 L 974.00 520.50 L 976.50 525.00 L 970.00 533.50 Z M 463.00 546.50 L 460.50 546.00 L 460.50 542.00 L 464.00 540.50 L 465.50 543.00 L 463.00 546.50 Z M 622.50 810.00 L 626.50 806.00 L 625.50 804.00 L 631.50 795.00 L 629.50 793.00 L 634.50 790.00 L 633.50 789.00 L 646.50 771.00 L 644.50 768.00 L 648.00 768.50 L 649.50 767.00 L 648.50 766.00 L 652.50 763.00 L 651.50 761.00 L 653.00 759.50 L 654.00 760.50 L 657.50 757.00 L 656.50 756.00 L 677.50 736.00 L 677.00 733.50 L 681.00 733.50 L 685.50 729.00 L 685.00 727.50 L 687.00 728.50 L 695.00 720.50 L 696.00 721.50 L 712.00 710.50 L 714.00 707.50 L 717.00 707.50 L 718.50 706.00 L 717.50 705.00 L 724.00 700.50 L 726.00 702.50 L 732.00 699.50 L 734.00 696.50 L 738.00 696.50 L 744.50 691.00 L 740.00 686.50 L 737.50 686.00 L 739.50 683.00 L 737.00 679.50 L 736.00 680.50 L 734.50 679.00 L 735.50 677.00 L 731.00 670.50 L 730.00 669.50 L 727.00 672.50 L 724.50 671.00 L 725.00 668.50 L 728.00 669.50 L 729.50 668.00 L 726.50 665.00 L 727.50 664.00 L 724.50 657.00 L 718.50 652.00 L 719.50 648.00 L 717.50 639.00 L 712.50 636.00 L 716.50 633.00 L 716.50 630.00 L 718.50 628.00 L 715.50 626.00 L 716.50 607.00 L 719.50 605.00 L 716.50 601.00 L 723.50 588.00 L 727.50 577.00 L 726.50 574.00 L 730.50 570.00 L 730.50 565.00 L 729.00 563.50 L 722.00 563.50 L 720.00 561.50 L 712.00 561.50 L 709.00 563.50 L 705.00 562.50 L 703.00 564.50 L 695.00 564.50 L 681.50 571.00 L 681.50 605.00 L 679.50 607.00 L 680.50 614.00 L 678.50 616.00 L 678.50 633.00 L 675.50 646.00 L 675.50 650.00 L 677.50 653.00 L 673.50 656.00 L 673.50 660.00 L 670.50 664.00 L 671.50 669.00 L 669.50 671.00 L 669.50 676.00 L 667.50 678.00 L 669.50 682.00 L 664.50 688.00 L 664.50 694.00 L 661.50 700.00 L 662.50 702.00 L 659.50 706.00 L 660.50 709.00 L 659.50 712.00 L 656.50 714.00 L 653.50 726.00 L 647.50 740.00 L 650.50 747.00 L 643.50 750.00 L 643.50 758.00 L 645.50 761.00 L 644.00 760.50 L 642.00 764.50 L 638.00 768.50 L 637.00 767.50 L 635.50 769.00 L 636.50 772.00 L 633.50 774.00 L 631.50 778.00 L 631.50 783.00 L 628.50 785.00 L 628.50 789.00 L 627.00 788.50 L 623.50 794.00 L 624.50 798.00 L 623.00 799.50 L 622.00 798.50 L 618.50 804.00 L 620.50 809.00 L 622.50 810.00 Z M 401.50 579.00 L 405.50 575.00 L 400.00 569.50 L 395.50 578.00 L 397.00 579.50 L 401.50 579.00 Z M 842.50 693.00 L 847.50 691.00 L 842.00 687.50 L 832.00 687.50 L 820.50 691.00 L 822.00 693.50 L 842.50 693.00 Z M 937.00 892.50 L 934.50 890.00 L 934.50 886.00 L 939.00 884.50 L 939.50 891.00 L 937.00 892.50 Z M 532.50 1042.00 L 537.00 1039.50 L 545.00 1039.50 L 554.00 1035.50 L 563.00 1029.50 L 577.50 1015.00 L 588.50 998.00 L 587.50 995.00 L 590.50 991.00 L 589.50 989.00 L 594.50 986.00 L 596.50 975.00 L 593.50 969.00 L 596.00 967.50 L 598.00 968.50 L 600.50 966.00 L 601.50 959.00 L 600.00 957.50 L 597.00 955.50 L 577.00 956.50 L 575.00 958.50 L 563.00 960.50 L 561.00 963.50 L 557.00 961.50 L 548.00 965.50 L 545.00 964.50 L 541.50 968.00 L 542.00 971.50 L 535.00 974.50 L 531.00 971.50 L 529.00 972.50 L 520.00 981.50 L 519.00 980.50 L 514.50 985.00 L 515.50 986.00 L 510.50 990.00 L 507.50 995.00 L 508.50 997.00 L 504.50 1003.00 L 505.50 1004.00 L 503.50 1011.00 L 503.50 1026.00 L 507.50 1033.00 L 514.00 1038.50 L 524.00 1042.50 L 532.50 1042.00 Z M 25.00 1072.50 L 19.50 1072.00 L 21.00 1067.50 L 24.50 1068.00 L 25.00 1072.50 Z" fill="#ea1d2c" fill-rule="evenodd"/>
</svg>